<svg width="100" height="100" viewBox="0 0 100 100" fill="none" xmlns="http://www.w3.org/2000/svg">
<path d="M32.5626 76.1248C31.947 76.1256 31.3372 76.0047 30.7683 75.7691C30.1995 75.5335 29.6828 75.1878 29.248 74.752L7.373 52.877C5.54233 51.0463 5.54233 48.0783 7.373 46.2479L29.248 24.3729C31.0787 22.5424 34.0464 22.5424 35.8771 24.3729C37.7074 26.2033 37.7074 29.1713 35.8771 31.002L17.3167 49.5623L35.8771 68.1227C37.7074 69.9533 37.7074 72.9211 35.8771 74.7518C35.4423 75.1877 34.9257 75.5334 34.3569 75.769C33.7881 76.0047 33.1783 76.1256 32.5626 76.1248ZM66.9376 76.1248C67.5533 76.1256 68.1631 76.0047 68.7319 75.7691C69.3008 75.5335 69.8175 75.1878 70.2523 74.752L92.1273 52.877C93.958 51.0463 93.958 48.0783 92.1273 46.2479L70.2523 24.3729C68.4216 22.5424 65.4539 22.5424 63.6232 24.3729C61.7929 26.2033 61.7929 29.1713 63.6232 31.002L82.1835 49.5623L63.6232 68.1227C61.7929 69.9533 61.7929 72.9211 63.6232 74.7518C64.058 75.1877 64.5746 75.5334 65.1434 75.769C65.7122 76.0047 66.322 76.1256 66.9376 76.1248Z" fill="#EF4444"/>
</svg>
