<svg width="100" height="100" viewBox="0 0 100 100" fill="none" xmlns="http://www.w3.org/2000/svg">
<path d="M50 87.5C67.4691 87.5 82.1482 75.5551 86.3154 59.3873M50 87.5C32.5309 87.5 17.8517 75.5551 13.6846 59.3873M50 87.5C60.3553 87.5 68.75 70.7107 68.75 50C68.75 29.2893 60.3553 12.5 50 12.5M50 87.5C39.6447 87.5 31.25 70.7107 31.25 50C31.25 29.2893 39.6447 12.5 50 12.5M50 12.5C64.0216 12.5 76.2459 20.1956 82.6795 31.5935M50 12.5C35.9784 12.5 23.7541 20.1956 17.3205 31.5935M82.6795 31.5935C73.9155 39.1683 62.4928 43.75 50 43.75C37.5072 43.75 26.0845 39.1683 17.3205 31.5935M82.6795 31.5935C85.7486 37.031 87.5 43.311 87.5 50C87.5 53.2416 87.0887 56.3871 86.3154 59.3873M86.3154 59.3873C75.5557 65.3531 63.1746 68.75 50 68.75C36.8254 68.75 24.4443 65.3531 13.6846 59.3873M13.6846 59.3873C12.9113 56.3871 12.5 53.2416 12.5 50C12.5 43.311 14.2514 37.031 17.3205 31.5935" stroke="#EAB308" stroke-width="5" stroke-linecap="round" stroke-linejoin="round"/>
</svg>
