<svg width="80" height="80" viewBox="0 0 80 80" fill="none" xmlns="http://www.w3.org/2000/svg">
<path d="M0 40C0 17.9086 17.9086 0 40 0V0C62.0914 0 80 17.9086 80 40V40C80 62.0914 62.0914 80 40 80V80C17.9086 80 0 62.0914 0 40V40Z" fill="#F1F5F9"/>
<path d="M23.75 46.25L32.3484 37.6516C33.8128 36.1872 36.1872 36.1872 37.6517 37.6517L46.25 46.25M43.75 43.75L46.0984 41.4016C47.5628 39.9372 49.9372 39.9372 51.4017 41.4017L56.25 46.25M26.25 52.5H53.75C55.1307 52.5 56.25 51.3807 56.25 50V30C56.25 28.6193 55.1307 27.5 53.75 27.5H26.25C24.8693 27.5 23.75 28.6193 23.75 30V50C23.75 51.3807 24.8693 52.5 26.25 52.5ZM43.75 33.75H43.7625V33.7625H43.75V33.75ZM44.375 33.75C44.375 34.0952 44.0952 34.375 43.75 34.375C43.4048 34.375 43.125 34.0952 43.125 33.75C43.125 33.4048 43.4048 33.125 43.75 33.125C44.0952 33.125 44.375 33.4048 44.375 33.75Z" stroke="#64748B" stroke-width="2.5" stroke-linecap="round" stroke-linejoin="round"/>
</svg>
