<svg width="100" height="100" viewBox="0 0 100 100" fill="none" xmlns="http://www.w3.org/2000/svg">
<path d="M85.996 76.7291C83.0502 66.8832 76.1752 58.7624 67.1919 54.1499C71.371 49.8332 73.9585 43.9666 73.9585 37.4999C73.9585 34.2957 73.3169 31.0541 72.096 28.1291C71.4335 26.5374 69.596 25.7957 68.0085 26.4499C66.4169 27.1124 65.6669 28.9457 66.3294 30.5374C67.2335 32.7082 67.7127 35.1166 67.7127 37.4999C67.7127 47.2666 59.771 55.2082 50.0044 55.2082C40.2377 55.2082 32.296 47.2666 32.296 37.4999C32.296 35.1916 32.7335 32.9416 33.6044 30.8082C34.2544 29.2082 33.4919 27.3874 31.8919 26.7332C30.296 26.0749 28.4669 26.8416 27.8169 28.4457C26.6419 31.3332 26.0419 34.3832 26.0419 37.4999C26.0419 43.9707 28.6294 49.8374 32.8085 54.1499C23.8252 58.7624 16.9502 66.8832 14.0044 76.7374C13.0252 80.0457 13.646 83.5291 15.7085 86.2957C17.7627 89.0457 20.9044 90.6249 24.3294 90.6249H75.6627C79.0877 90.6249 82.2294 89.0457 84.2835 86.2957C86.346 83.5291 86.971 80.0457 85.9877 76.7291H85.996ZM20.721 82.5541C19.846 81.3874 19.5835 79.9082 19.996 78.5166C22.746 69.3249 29.6044 61.9499 38.4377 58.4666C41.0002 59.8832 43.8502 60.8291 46.8752 61.2249V84.3707H24.3335C22.9002 84.3707 21.5835 83.7124 20.721 82.5541ZM79.2835 82.5541C78.421 83.7082 77.1044 84.3749 75.671 84.3749H53.1294V61.2291C56.1544 60.8332 59.0044 59.8874 61.5669 58.4707C70.4002 61.9541 77.2585 69.3291 80.0085 78.5124C80.4252 79.9124 80.1585 81.3832 79.2835 82.5541Z" fill="#3B82F6"/>
<path d="M82.4581 24.9999C82.4581 23.7457 81.7081 22.6165 80.5581 22.1249L54.4998 11.0207C51.6331 9.80405 48.354 9.80821 45.4998 11.0332L19.604 22.129C18.3206 22.679 17.5998 23.9749 17.7206 25.2915C17.5998 26.6249 18.3456 27.9415 19.654 28.4749L45.679 39.0832C47.0581 39.6457 48.5331 39.9249 50.004 39.9249C51.5415 39.9249 53.079 39.6207 54.5081 39.0082L76.0415 29.8082V37.504C76.0415 39.229 77.4415 40.629 79.1665 40.629C80.8915 40.629 82.2915 39.229 82.2915 37.504V25.979C82.3956 25.6665 82.4581 25.3374 82.4581 24.9999ZM52.0498 33.2582C50.7748 33.804 49.3206 33.8124 48.0415 33.2915L28.2456 25.2207L47.9581 16.7749C49.254 16.2082 50.7456 16.2124 52.0456 16.7749L71.3665 25.0082L52.0456 33.2624L52.0498 33.2582Z" fill="#3B82F6"/>
</svg>
