<svg width="100" height="100" viewBox="0 0 100 100" fill="none" xmlns="http://www.w3.org/2000/svg">
<path d="M55.4426 88.4766C31.4863 80.2012 13.8219 60.2695 13.8219 33.5801L13.8416 31.3477H3.51562L25.6428 3.51562L47.7699 31.3477H36.4939V32.668C38.6318 60.7949 57.5314 72.7539 84.1352 76.0762M25.9193 35.0502C25.9193 35.0502 25.4723 58.8479 47.8129 73.9207" stroke="#00C16A" stroke-width="5" stroke-miterlimit="10" stroke-linecap="round" stroke-linejoin="round"/>
<path d="M51.6775 80.4766C54.1255 80.4766 56.11 78.506 56.11 76.0752C56.11 73.6444 54.1255 71.6738 51.6775 71.6738C49.2296 71.6738 47.2451 73.6444 47.2451 76.0752C47.2451 78.506 49.2296 80.4766 51.6775 80.4766Z" stroke="#00C16A" stroke-width="5" stroke-miterlimit="10" stroke-linecap="round" stroke-linejoin="round"/>
<path d="M90.4075 82.3037C93.8716 82.3037 96.6798 79.5151 96.6798 76.0752C96.6798 72.6353 93.8716 69.8467 90.4075 69.8467C86.9434 69.8467 84.1353 72.6353 84.1353 76.0752C84.1353 79.5151 86.9434 82.3037 90.4075 82.3037Z" stroke="#00C16A" stroke-width="5" stroke-miterlimit="10" stroke-linecap="round" stroke-linejoin="round"/>
<path d="M67.2614 90.6172C67.2614 90.916 67.2397 91.2109 67.1966 91.5C66.7659 94.4297 64.2267 96.6797 61.1563 96.6797C57.7851 96.6797 55.0513 93.9648 55.0513 90.6172C55.0513 89.8633 55.189 89.1426 55.4427 88.4766C56.314 86.1855 58.5444 84.5547 61.1563 84.5547C64.5276 84.5547 67.2614 87.2695 67.2614 90.6172Z" stroke="#00C16A" stroke-width="5" stroke-miterlimit="10" stroke-linecap="round" stroke-linejoin="round"/>
</svg>
